<?xml version="1.0" encoding="UTF-8"?><svg id="a" xmlns="http://www.w3.org/2000/svg" xmlns:xlink="http://www.w3.org/1999/xlink" viewBox="0 0 322.82 81.74"><defs><linearGradient id="b" x1="296.54" y1="52.55" x2="296.63" y2="21.94" gradientUnits="userSpaceOnUse"><stop offset="0" stop-color="#3974b7"/><stop offset=".73" stop-color="#2f308d"/></linearGradient><linearGradient id="c" x1="296.53" y1="52.26" x2="296.44" y2="95.04" gradientUnits="userSpaceOnUse"><stop offset="0" stop-color="#f9ee4c"/><stop offset=".73" stop-color="#ea993e"/></linearGradient></defs><polygon points="296.52 10.07 270.21 61.21 322.82 61.21 296.52 10.07" fill="url(#b)" stroke-width="0"/><path d="M55.55,31.89c0,2.09-.26,3.95-.77,5.59-.52,1.64-1.21,3.09-2.09,4.34-.88,1.25-1.89,2.33-3.04,3.22-1.15.89-2.35,1.62-3.6,2.18-1.25.56-2.52.97-3.8,1.23-1.28.26-2.48.39-3.6.39h-20.67v-9.14h20.67c1.17-.09,2.23-.33,3.18-.72s1.76-.91,2.44-1.56c.68-.66,1.21-1.45,1.58-2.37.37-.93.56-1.97.56-3.15v-4.15c-.12-1.15-.36-2.2-.74-3.16-.38-.96-.88-1.78-1.53-2.46-.65-.68-1.42-1.21-2.34-1.6s-1.97-.58-3.16-.58h-20.6c-1.22,0-2.14.32-2.78.95s-.95,1.55-.95,2.74v37.58H5.17V23.62c0-2.34.43-4.34,1.28-5.98.86-1.64,1.92-2.96,3.2-3.97,1.28-1.01,2.67-1.74,4.17-2.2,1.5-.46,2.88-.69,4.15-.69h20.67c2.06,0,3.91.26,5.55.79,1.64.53,3.09,1.23,4.34,2.11,1.25.88,2.32,1.89,3.2,3.04.88,1.15,1.6,2.35,2.18,3.6.57,1.25.99,2.52,1.25,3.8.26,1.28.39,2.48.39,3.6v4.15Z" fill="#221f20" stroke-width="0"/><path d="M113.73,27.74c0,2.09-.26,3.95-.77,5.59-.52,1.64-1.21,3.09-2.09,4.34-.88,1.25-1.89,2.33-3.04,3.22-1.15.89-2.35,1.62-3.6,2.2-1.25.57-2.52.99-3.8,1.25-1.28.26-2.48.39-3.6.39l19.09,16.49h-14.13l-19.05-16.49h-6.57v-9.14h20.67c1.15-.09,2.2-.33,3.15-.72s1.77-.91,2.46-1.56c.69-.66,1.22-1.45,1.6-2.37.38-.93.56-1.99.56-3.18v-5.77c0-.52-.06-.91-.19-1.18-.13-.27-.29-.47-.49-.6-.2-.13-.41-.21-.63-.23-.22-.02-.43-.04-.62-.04h-30.16v41.27h-9.14V15.4c0-.63.12-1.23.35-1.79.23-.56.56-1.05.97-1.48.41-.42.9-.75,1.46-.98.56-.23,1.17-.35,1.83-.35h34.7c2.04,0,3.76.37,5.17,1.11s2.55,1.66,3.43,2.78c.88,1.11,1.51,2.31,1.9,3.6.39,1.29.58,2.5.58,3.62v5.84Z" fill="#221f20" stroke-width="0"/><path d="M132.12,61.21h-9.14V10.79h9.14v50.41Z" fill="#221f20" stroke-width="0"/><path d="M191.25,46.37c0,1.81-.23,3.43-.69,4.87s-1.06,2.71-1.81,3.81c-.75,1.1-1.63,2.04-2.64,2.81s-2.05,1.41-3.13,1.9-2.17.86-3.29,1.09c-1.11.23-2.16.35-3.15.35h-35.26v-9.14h35.26c1.76,0,3.12-.52,4.1-1.55.97-1.03,1.46-2.41,1.46-4.15,0-.84-.13-1.62-.39-2.32s-.63-1.31-1.11-1.83c-.48-.52-1.07-.91-1.76-1.2s-1.46-.42-2.3-.42h-21.02c-1.48,0-3.07-.26-4.78-.79s-3.3-1.38-4.76-2.55c-1.46-1.17-2.68-2.71-3.66-4.61s-1.46-4.22-1.46-6.96.49-5.06,1.46-6.94c.97-1.89,2.19-3.42,3.66-4.61,1.46-1.18,3.05-2.04,4.76-2.57s3.3-.79,4.78-.79h31.11v9.14h-31.11c-1.73,0-3.09.53-4.06,1.58s-1.46,2.45-1.46,4.18.49,3.15,1.46,4.17,2.33,1.53,4.06,1.53h21.09c.98.02,2.03.16,3.13.4s2.2.63,3.29,1.14c1.09.52,2.13,1.17,3.11,1.95.98.79,1.86,1.73,2.62,2.83.76,1.1,1.37,2.37,1.81,3.8.45,1.43.67,3.05.67,4.85Z" fill="#221f20" stroke-width="0"/><path d="M257.52,61.21h-9.21v-30.02l-16.21,28.51c-.4.73-.96,1.28-1.67,1.65s-1.48.56-2.3.56-1.54-.19-2.23-.56-1.24-.93-1.63-1.65l-16.28-28.51v30.02h-9.14V14.7c0-1.05.31-1.99.93-2.81.62-.82,1.44-1.37,2.44-1.65.49-.12.98-.16,1.48-.12s.97.14,1.42.32.87.42,1.25.74.69.7.95,1.14l20.81,36.18,20.81-36.18c.54-.89,1.28-1.52,2.23-1.9.95-.37,1.94-.43,2.97-.18.98.28,1.79.83,2.43,1.65.63.82.95,1.76.95,2.81v46.51Z" fill="#221f20" stroke-width="0"/><polygon points="296.52 43.21 270.21 61.21 322.82 61.21 296.52 43.21" fill="url(#c)" stroke-width="0"/></svg>